<mxfile host="app.diagrams.net" modified="2023-05-08T06:36:27.554Z" agent="Mozilla/5.0 (X11; Linux x86_64) AppleWebKit/537.36 (KHTML, like Gecko) Chrome/112.0.0.0 Safari/537.36" etag="ZAfWWPdVZWLTQ536VTa_" version="21.2.9" type="github">
  <diagram name="第 1 页" id="wM5cNZd2wgCHgp1O5KEM">
    <mxGraphModel dx="338" dy="333" grid="1" gridSize="10" guides="1" tooltips="1" connect="1" arrows="1" fold="1" page="1" pageScale="1" pageWidth="827" pageHeight="1169" math="0" shadow="0">
      <root>
        <mxCell id="0" />
        <mxCell id="1" parent="0" />
        <mxCell id="YwtGz2R04K_Di0VMPY7A-22" value="" style="edgeStyle=orthogonalEdgeStyle;rounded=0;orthogonalLoop=1;jettySize=auto;html=1;entryX=0.5;entryY=0;entryDx=0;entryDy=0;" edge="1" parent="1" source="YwtGz2R04K_Di0VMPY7A-2" target="YwtGz2R04K_Di0VMPY7A-5">
          <mxGeometry relative="1" as="geometry" />
        </mxCell>
        <mxCell id="YwtGz2R04K_Di0VMPY7A-2" value="1" style="ellipse;whiteSpace=wrap;html=1;aspect=fixed;" vertex="1" parent="1">
          <mxGeometry x="290" y="60" width="20" height="20" as="geometry" />
        </mxCell>
        <mxCell id="YwtGz2R04K_Di0VMPY7A-27" value="" style="edgeStyle=orthogonalEdgeStyle;rounded=0;orthogonalLoop=1;jettySize=auto;html=1;entryX=1;entryY=0.5;entryDx=0;entryDy=0;" edge="1" parent="1" source="YwtGz2R04K_Di0VMPY7A-3" target="YwtGz2R04K_Di0VMPY7A-6">
          <mxGeometry relative="1" as="geometry" />
        </mxCell>
        <mxCell id="YwtGz2R04K_Di0VMPY7A-3" value="4" style="ellipse;whiteSpace=wrap;html=1;aspect=fixed;" vertex="1" parent="1">
          <mxGeometry x="330" y="140" width="20" height="20" as="geometry" />
        </mxCell>
        <mxCell id="YwtGz2R04K_Di0VMPY7A-25" style="edgeStyle=orthogonalEdgeStyle;rounded=0;orthogonalLoop=1;jettySize=auto;html=1;exitX=0.5;exitY=1;exitDx=0;exitDy=0;entryX=0.5;entryY=0;entryDx=0;entryDy=0;" edge="1" parent="1" source="YwtGz2R04K_Di0VMPY7A-4" target="YwtGz2R04K_Di0VMPY7A-3">
          <mxGeometry relative="1" as="geometry" />
        </mxCell>
        <mxCell id="YwtGz2R04K_Di0VMPY7A-4" value="3" style="ellipse;whiteSpace=wrap;html=1;aspect=fixed;" vertex="1" parent="1">
          <mxGeometry x="330" y="100" width="20" height="20" as="geometry" />
        </mxCell>
        <mxCell id="YwtGz2R04K_Di0VMPY7A-23" style="edgeStyle=orthogonalEdgeStyle;rounded=0;orthogonalLoop=1;jettySize=auto;html=1;exitX=1;exitY=0.5;exitDx=0;exitDy=0;entryX=0;entryY=0.5;entryDx=0;entryDy=0;" edge="1" parent="1" source="YwtGz2R04K_Di0VMPY7A-5" target="YwtGz2R04K_Di0VMPY7A-4">
          <mxGeometry relative="1" as="geometry" />
        </mxCell>
        <mxCell id="YwtGz2R04K_Di0VMPY7A-24" style="edgeStyle=orthogonalEdgeStyle;rounded=0;orthogonalLoop=1;jettySize=auto;html=1;exitX=0.5;exitY=1;exitDx=0;exitDy=0;entryX=0.5;entryY=0;entryDx=0;entryDy=0;" edge="1" parent="1" source="YwtGz2R04K_Di0VMPY7A-5" target="YwtGz2R04K_Di0VMPY7A-6">
          <mxGeometry relative="1" as="geometry" />
        </mxCell>
        <mxCell id="YwtGz2R04K_Di0VMPY7A-5" value="2" style="ellipse;whiteSpace=wrap;html=1;aspect=fixed;" vertex="1" parent="1">
          <mxGeometry x="290" y="100" width="20" height="20" as="geometry" />
        </mxCell>
        <mxCell id="YwtGz2R04K_Di0VMPY7A-28" style="edgeStyle=orthogonalEdgeStyle;rounded=0;orthogonalLoop=1;jettySize=auto;html=1;exitX=0.5;exitY=1;exitDx=0;exitDy=0;entryX=0.5;entryY=0;entryDx=0;entryDy=0;" edge="1" parent="1" source="YwtGz2R04K_Di0VMPY7A-6" target="YwtGz2R04K_Di0VMPY7A-7">
          <mxGeometry relative="1" as="geometry" />
        </mxCell>
        <mxCell id="YwtGz2R04K_Di0VMPY7A-6" value="5" style="ellipse;whiteSpace=wrap;html=1;aspect=fixed;" vertex="1" parent="1">
          <mxGeometry x="290" y="140" width="20" height="20" as="geometry" />
        </mxCell>
        <mxCell id="YwtGz2R04K_Di0VMPY7A-29" style="edgeStyle=orthogonalEdgeStyle;rounded=0;orthogonalLoop=1;jettySize=auto;html=1;exitX=1;exitY=0.5;exitDx=0;exitDy=0;entryX=0;entryY=0.5;entryDx=0;entryDy=0;" edge="1" parent="1" source="YwtGz2R04K_Di0VMPY7A-7" target="YwtGz2R04K_Di0VMPY7A-8">
          <mxGeometry relative="1" as="geometry" />
        </mxCell>
        <mxCell id="YwtGz2R04K_Di0VMPY7A-32" style="edgeStyle=orthogonalEdgeStyle;rounded=0;orthogonalLoop=1;jettySize=auto;html=1;exitX=0.5;exitY=1;exitDx=0;exitDy=0;entryX=0.5;entryY=0;entryDx=0;entryDy=0;" edge="1" parent="1" source="YwtGz2R04K_Di0VMPY7A-7" target="YwtGz2R04K_Di0VMPY7A-12">
          <mxGeometry relative="1" as="geometry" />
        </mxCell>
        <mxCell id="YwtGz2R04K_Di0VMPY7A-7" value="6" style="ellipse;whiteSpace=wrap;html=1;aspect=fixed;" vertex="1" parent="1">
          <mxGeometry x="290" y="180" width="20" height="20" as="geometry" />
        </mxCell>
        <mxCell id="YwtGz2R04K_Di0VMPY7A-45" style="edgeStyle=orthogonalEdgeStyle;rounded=0;orthogonalLoop=1;jettySize=auto;html=1;exitX=1;exitY=0.5;exitDx=0;exitDy=0;entryX=0;entryY=0.5;entryDx=0;entryDy=0;" edge="1" parent="1" source="YwtGz2R04K_Di0VMPY7A-8" target="YwtGz2R04K_Di0VMPY7A-10">
          <mxGeometry relative="1" as="geometry" />
        </mxCell>
        <mxCell id="YwtGz2R04K_Di0VMPY7A-8" value="7" style="ellipse;whiteSpace=wrap;html=1;aspect=fixed;" vertex="1" parent="1">
          <mxGeometry x="330" y="180" width="20" height="20" as="geometry" />
        </mxCell>
        <mxCell id="YwtGz2R04K_Di0VMPY7A-51" style="edgeStyle=orthogonalEdgeStyle;rounded=0;orthogonalLoop=1;jettySize=auto;html=1;exitX=0;exitY=0.5;exitDx=0;exitDy=0;entryX=1;entryY=0.5;entryDx=0;entryDy=0;" edge="1" parent="1" source="YwtGz2R04K_Di0VMPY7A-9" target="YwtGz2R04K_Di0VMPY7A-11">
          <mxGeometry relative="1" as="geometry" />
        </mxCell>
        <mxCell id="YwtGz2R04K_Di0VMPY7A-9" value="9" style="ellipse;whiteSpace=wrap;html=1;aspect=fixed;" vertex="1" parent="1">
          <mxGeometry x="370" y="220" width="20" height="20" as="geometry" />
        </mxCell>
        <mxCell id="YwtGz2R04K_Di0VMPY7A-50" style="edgeStyle=orthogonalEdgeStyle;rounded=0;orthogonalLoop=1;jettySize=auto;html=1;exitX=0.5;exitY=1;exitDx=0;exitDy=0;entryX=0.5;entryY=0;entryDx=0;entryDy=0;" edge="1" parent="1" source="YwtGz2R04K_Di0VMPY7A-10" target="YwtGz2R04K_Di0VMPY7A-9">
          <mxGeometry relative="1" as="geometry" />
        </mxCell>
        <mxCell id="YwtGz2R04K_Di0VMPY7A-10" value="8" style="ellipse;whiteSpace=wrap;html=1;aspect=fixed;" vertex="1" parent="1">
          <mxGeometry x="370" y="180" width="20" height="20" as="geometry" />
        </mxCell>
        <mxCell id="YwtGz2R04K_Di0VMPY7A-33" style="edgeStyle=orthogonalEdgeStyle;rounded=0;orthogonalLoop=1;jettySize=auto;html=1;exitX=0;exitY=0.5;exitDx=0;exitDy=0;" edge="1" parent="1" source="YwtGz2R04K_Di0VMPY7A-11" target="YwtGz2R04K_Di0VMPY7A-12">
          <mxGeometry relative="1" as="geometry" />
        </mxCell>
        <mxCell id="YwtGz2R04K_Di0VMPY7A-11" value="10" style="ellipse;whiteSpace=wrap;html=1;aspect=fixed;" vertex="1" parent="1">
          <mxGeometry x="330" y="220" width="20" height="20" as="geometry" />
        </mxCell>
        <mxCell id="YwtGz2R04K_Di0VMPY7A-52" style="edgeStyle=orthogonalEdgeStyle;rounded=0;orthogonalLoop=1;jettySize=auto;html=1;exitX=0.5;exitY=1;exitDx=0;exitDy=0;entryX=0.5;entryY=0;entryDx=0;entryDy=0;" edge="1" parent="1" source="YwtGz2R04K_Di0VMPY7A-12" target="YwtGz2R04K_Di0VMPY7A-13">
          <mxGeometry relative="1" as="geometry" />
        </mxCell>
        <mxCell id="YwtGz2R04K_Di0VMPY7A-12" value="11" style="ellipse;whiteSpace=wrap;html=1;aspect=fixed;" vertex="1" parent="1">
          <mxGeometry x="290" y="220" width="20" height="20" as="geometry" />
        </mxCell>
        <mxCell id="YwtGz2R04K_Di0VMPY7A-53" style="edgeStyle=orthogonalEdgeStyle;rounded=0;orthogonalLoop=1;jettySize=auto;html=1;exitX=1;exitY=0.5;exitDx=0;exitDy=0;entryX=0;entryY=0.5;entryDx=0;entryDy=0;" edge="1" parent="1" source="YwtGz2R04K_Di0VMPY7A-13" target="YwtGz2R04K_Di0VMPY7A-14">
          <mxGeometry relative="1" as="geometry" />
        </mxCell>
        <mxCell id="YwtGz2R04K_Di0VMPY7A-59" style="edgeStyle=orthogonalEdgeStyle;rounded=0;orthogonalLoop=1;jettySize=auto;html=1;exitX=0.5;exitY=1;exitDx=0;exitDy=0;entryX=0.5;entryY=0;entryDx=0;entryDy=0;" edge="1" parent="1" source="YwtGz2R04K_Di0VMPY7A-13" target="YwtGz2R04K_Di0VMPY7A-19">
          <mxGeometry relative="1" as="geometry" />
        </mxCell>
        <mxCell id="YwtGz2R04K_Di0VMPY7A-13" value="12" style="ellipse;whiteSpace=wrap;html=1;aspect=fixed;" vertex="1" parent="1">
          <mxGeometry x="290" y="260" width="20" height="20" as="geometry" />
        </mxCell>
        <mxCell id="YwtGz2R04K_Di0VMPY7A-54" style="edgeStyle=orthogonalEdgeStyle;rounded=0;orthogonalLoop=1;jettySize=auto;html=1;exitX=1;exitY=0.5;exitDx=0;exitDy=0;" edge="1" parent="1" source="YwtGz2R04K_Di0VMPY7A-14" target="YwtGz2R04K_Di0VMPY7A-15">
          <mxGeometry relative="1" as="geometry" />
        </mxCell>
        <mxCell id="YwtGz2R04K_Di0VMPY7A-14" value="13" style="ellipse;whiteSpace=wrap;html=1;aspect=fixed;" vertex="1" parent="1">
          <mxGeometry x="330" y="260" width="20" height="20" as="geometry" />
        </mxCell>
        <mxCell id="YwtGz2R04K_Di0VMPY7A-55" style="edgeStyle=orthogonalEdgeStyle;rounded=0;orthogonalLoop=1;jettySize=auto;html=1;exitX=1;exitY=0.5;exitDx=0;exitDy=0;entryX=0;entryY=0.5;entryDx=0;entryDy=0;" edge="1" parent="1" source="YwtGz2R04K_Di0VMPY7A-15" target="YwtGz2R04K_Di0VMPY7A-16">
          <mxGeometry relative="1" as="geometry" />
        </mxCell>
        <mxCell id="YwtGz2R04K_Di0VMPY7A-15" value="14" style="ellipse;whiteSpace=wrap;html=1;aspect=fixed;" vertex="1" parent="1">
          <mxGeometry x="370" y="260" width="20" height="20" as="geometry" />
        </mxCell>
        <mxCell id="YwtGz2R04K_Di0VMPY7A-16" value="15" style="ellipse;whiteSpace=wrap;html=1;aspect=fixed;" vertex="1" parent="1">
          <mxGeometry x="410" y="260" width="20" height="20" as="geometry" />
        </mxCell>
        <mxCell id="YwtGz2R04K_Di0VMPY7A-17" value="16" style="ellipse;whiteSpace=wrap;html=1;aspect=fixed;" vertex="1" parent="1">
          <mxGeometry x="370" y="300" width="20" height="20" as="geometry" />
        </mxCell>
        <mxCell id="YwtGz2R04K_Di0VMPY7A-61" style="edgeStyle=orthogonalEdgeStyle;rounded=0;orthogonalLoop=1;jettySize=auto;html=1;exitX=0;exitY=0.5;exitDx=0;exitDy=0;entryX=1;entryY=0.5;entryDx=0;entryDy=0;" edge="1" parent="1" source="YwtGz2R04K_Di0VMPY7A-18" target="YwtGz2R04K_Di0VMPY7A-20">
          <mxGeometry relative="1" as="geometry" />
        </mxCell>
        <mxCell id="YwtGz2R04K_Di0VMPY7A-18" value="17" style="ellipse;whiteSpace=wrap;html=1;aspect=fixed;" vertex="1" parent="1">
          <mxGeometry x="330" y="340" width="20" height="20" as="geometry" />
        </mxCell>
        <mxCell id="YwtGz2R04K_Di0VMPY7A-60" style="edgeStyle=orthogonalEdgeStyle;rounded=0;orthogonalLoop=1;jettySize=auto;html=1;exitX=0.5;exitY=1;exitDx=0;exitDy=0;entryX=0.5;entryY=0;entryDx=0;entryDy=0;" edge="1" parent="1" source="YwtGz2R04K_Di0VMPY7A-19" target="YwtGz2R04K_Di0VMPY7A-20">
          <mxGeometry relative="1" as="geometry" />
        </mxCell>
        <mxCell id="YwtGz2R04K_Di0VMPY7A-19" value="18" style="ellipse;whiteSpace=wrap;html=1;aspect=fixed;" vertex="1" parent="1">
          <mxGeometry x="290" y="300" width="20" height="20" as="geometry" />
        </mxCell>
        <mxCell id="YwtGz2R04K_Di0VMPY7A-20" value="19" style="ellipse;whiteSpace=wrap;html=1;aspect=fixed;" vertex="1" parent="1">
          <mxGeometry x="290" y="340" width="20" height="20" as="geometry" />
        </mxCell>
        <mxCell id="YwtGz2R04K_Di0VMPY7A-26" value="" style="endArrow=classic;html=1;rounded=0;exitX=0;exitY=1;exitDx=0;exitDy=0;entryX=1;entryY=0;entryDx=0;entryDy=0;" edge="1" parent="1" source="YwtGz2R04K_Di0VMPY7A-4" target="YwtGz2R04K_Di0VMPY7A-6">
          <mxGeometry width="50" height="50" relative="1" as="geometry">
            <mxPoint x="450" y="290" as="sourcePoint" />
            <mxPoint x="500" y="240" as="targetPoint" />
          </mxGeometry>
        </mxCell>
        <mxCell id="YwtGz2R04K_Di0VMPY7A-35" value="" style="endArrow=classic;html=1;rounded=0;exitX=0;exitY=1;exitDx=0;exitDy=0;entryX=1;entryY=0;entryDx=0;entryDy=0;" edge="1" parent="1" source="YwtGz2R04K_Di0VMPY7A-8" target="YwtGz2R04K_Di0VMPY7A-12">
          <mxGeometry width="50" height="50" relative="1" as="geometry">
            <mxPoint x="450" y="290" as="sourcePoint" />
            <mxPoint x="500" y="240" as="targetPoint" />
          </mxGeometry>
        </mxCell>
        <mxCell id="YwtGz2R04K_Di0VMPY7A-43" value="" style="endArrow=classic;html=1;rounded=0;exitX=0;exitY=1;exitDx=0;exitDy=0;entryX=1;entryY=0;entryDx=0;entryDy=0;" edge="1" parent="1" source="YwtGz2R04K_Di0VMPY7A-10" target="YwtGz2R04K_Di0VMPY7A-11">
          <mxGeometry width="50" height="50" relative="1" as="geometry">
            <mxPoint x="450" y="290" as="sourcePoint" />
            <mxPoint x="500" y="240" as="targetPoint" />
          </mxGeometry>
        </mxCell>
        <mxCell id="YwtGz2R04K_Di0VMPY7A-56" value="" style="endArrow=classic;html=1;rounded=0;exitX=0;exitY=1;exitDx=0;exitDy=0;entryX=1;entryY=0;entryDx=0;entryDy=0;" edge="1" parent="1" source="YwtGz2R04K_Di0VMPY7A-16" target="YwtGz2R04K_Di0VMPY7A-17">
          <mxGeometry width="50" height="50" relative="1" as="geometry">
            <mxPoint x="340" y="270" as="sourcePoint" />
            <mxPoint x="390" y="220" as="targetPoint" />
          </mxGeometry>
        </mxCell>
        <mxCell id="YwtGz2R04K_Di0VMPY7A-58" value="" style="endArrow=classic;html=1;rounded=0;entryX=1;entryY=0;entryDx=0;entryDy=0;exitX=0;exitY=1;exitDx=0;exitDy=0;" edge="1" parent="1" source="YwtGz2R04K_Di0VMPY7A-17" target="YwtGz2R04K_Di0VMPY7A-18">
          <mxGeometry width="50" height="50" relative="1" as="geometry">
            <mxPoint x="340" y="270" as="sourcePoint" />
            <mxPoint x="390" y="220" as="targetPoint" />
          </mxGeometry>
        </mxCell>
      </root>
    </mxGraphModel>
  </diagram>
</mxfile>
